Coordinates
version=1
nRows=35
nColumns=18
inDegrees=yes

Units are S.I. units (second, meters, Newtons, ...)
Angles are in degrees.

endheader
time	pelvis_tilt	pelvis_list	pelvis_rot	pelvis_tx	pelvis_ty	pelvis_tz	hip_flexion_r	hip_adduction_r	hip_rotation_r	knee_angle_r	ankle_angle_r	hip_flexion_l	hip_adduction_l	hip_rotation_l	knee_angle_l	ankle_angle_l	lumbar_extension
      4.02000000	      0.98269609	      0.00000000	      0.00000000	      0.23505139	      0.91669783	     -0.21881567	     11.37060035	      0.00000000	      0.00000000	    -24.20095041	      6.53673156	     13.76091524	      0.00000000	      0.00000000	    -64.38243736	     -9.76079307	     -3.59586190
      4.03000000	      0.91842438	      0.00000000	      0.00000000	      0.24675581	      0.91821827	     -0.21848055	     10.14921275	      0.00000000	      0.00000000	    -23.31688705	      6.79533679	     15.46379264	      0.00000000	      0.00000000	    -64.07313112	     -8.23391083	     -3.58080306
      4.04000000	      0.84327143	      0.00000000	      0.00000000	      0.25841427	      0.91948894	     -0.21823403	      8.95616460	      0.00000000	      0.00000000	    -22.43254471	      7.05763207	     17.08982454	      0.00000000	      0.00000000	    -63.45593869	     -6.81056133	     -3.56229652
      4.05000000	      0.76607888	      0.00000000	      0.00000000	      0.27001255	      0.92048565	     -0.21806499	      7.77527873	      0.00000000	      0.00000000	    -21.55030934	      7.32942257	     18.62202835	      0.00000000	      0.00000000	    -62.53159650	     -5.51139909	     -3.55350869
      4.06000000	      0.69561446	      0.00000000	      0.00000000	      0.28154139	      0.92119749	     -0.21792899	      6.58839516	      0.00000000	      0.00000000	    -20.67162776	      7.61503095	     20.04379976	      0.00000000	      0.00000000	    -61.30026187	     -4.35851110	     -3.56632348
      4.07000000	      0.64116805	      0.00000000	      0.00000000	      0.29301335	      0.92162313	     -0.21777651	      5.37970853	      0.00000000	      0.00000000	    -19.79685419	      7.91720445	     21.33929814	      0.00000000	      0.00000000	    -59.76257726	     -3.37061373	     -3.61058760
      4.08000000	      0.61210839	      0.00000000	      0.00000000	      0.30445576	      0.92176746	     -0.21758731	      4.13883011	      0.00000000	      0.00000000	    -18.92605365	      8.23720167	     22.49374183	      0.00000000	      0.00000000	    -57.92139953	     -2.55882269	     -3.69363119
      4.09000000	      0.61639603	      0.00000000	      0.00000000	      0.31589814	      0.92164968	     -0.21737414	      2.86146083	      0.00000000	      0.00000000	    -18.06042818	      8.57513355	     23.49440288	      0.00000000	      0.00000000	    -55.78382266	     -1.92384376	     -3.81998427
      4.10000000	      0.65873479	      0.00000000	      0.00000000	      0.32736588	      0.92130140	     -0.21715738	      1.54785490	      0.00000000	      0.00000000	    -17.20381680	      8.93039204	     24.33246183	      0.00000000	      0.00000000	    -53.36272137	     -1.45481816	     -3.99117160
      4.11000000	      0.73955897	      0.00000000	      0.00000000	      0.33888126	      0.92074665	     -0.21694864	      0.20093776	      0.00000000	      0.00000000	    -16.36363870	      9.30194129	     25.00490067	      0.00000000	      0.00000000	    -50.67744335	     -1.12980155	     -4.20550195
      4.12000000	      0.85566545	      0.00000000	      0.00000000	      0.35046650	      0.91998779	     -0.21675595	     -1.17413961	      0.00000000	      0.00000000	    -15.55084826	      9.68834002	     25.51563705	      0.00000000	      0.00000000	    -47.75375973	     -0.91786499	     -4.45784568
      4.13000000	      1.00186160	      0.00000000	      0.00000000	      0.36214447	      0.91901711	     -0.21658665	     -2.56891570	      0.00000000	      0.00000000	    -14.77883502	     10.08750974	     25.87547781	      0.00000000	      0.00000000	    -44.62336188	     -0.78281436	     -4.73946880
      4.14000000	      1.17201212	      0.00000000	      0.00000000	      0.37393511	      0.91784301	     -0.21644329	     -3.97042768	      0.00000000	      0.00000000	    -14.06159620	     10.49639243	     26.10083080	      0.00000000	      0.00000000	    -41.32323160	     -0.68830385	     -5.03805054
      4.15000000	      1.35833525	      0.00000000	      0.00000000	      0.38584846	      0.91649759	     -0.21633126	     -5.36172149	      0.00000000	      0.00000000	    -13.41188397	     10.91065794	     26.21180419	      0.00000000	      0.00000000	    -37.89513519	     -0.60357136	     -5.33808510
      4.16000000	      1.54975301	      0.00000000	      0.00000000	      0.39788739	      0.91501647	     -0.21626899	     -6.72411897	      0.00000000	      0.00000000	    -12.83997649	     11.32453089	     26.23054268	      0.00000000	      0.00000000	    -34.38544058	     -0.50837170	     -5.62191838
      4.17000000	      1.73156531	      0.00000000	      0.00000000	      0.41005806	      0.91341722	     -0.21627420	     -8.03954277	      0.00000000	      0.00000000	    -12.35340458	     11.73069221	     26.18038573	      0.00000000	      0.00000000	    -30.84535099	     -0.39544422	     -5.87157112
      4.18000000	      1.88770682	      0.00000000	      0.00000000	      0.42236925	      0.91169546	     -0.21634320	     -9.29169687	      0.00000000	      0.00000000	    -11.95770043	     12.12017438	     26.08584250	      0.00000000	      0.00000000	    -27.33161029	     -0.26942856	     -6.07121374
      4.19000000	      2.00444487	      0.00000000	      0.00000000	      0.43482196	      0.90983824	     -0.21645625	    -10.46631653	      0.00000000	      0.00000000	    -11.65785477	     12.48228379	     25.97241283	      0.00000000	      0.00000000	    -23.90782199	     -0.14241696	     -6.20980131
      4.20000000	      2.07343482	      0.00000000	      0.00000000	      0.44740833	      0.90784610	     -0.21659563	    -11.55140826	      0.00000000	      0.00000000	    -11.45969376	     12.80474593	     25.86521536	      0.00000000	      0.00000000	    -20.64619055	     -0.02771864	     -6.28309974
      4.21000000	      2.09313348	      0.00000000	      0.00000000	      0.46012384	      0.90574595	     -0.21674919	    -12.53830768	      0.00000000	      0.00000000	    -11.37032627	     13.07432216	     25.78663255	      0.00000000	      0.00000000	    -17.62868364	      0.06576845	     -6.29430949
      4.22000000	      2.06882549	      0.00000000	      0.00000000	      0.47296923	      0.90358482	     -0.21690442	    -13.42369431	      0.00000000	      0.00000000	    -11.39724632	     13.27801484	     25.75426078	      0.00000000	      0.00000000	    -14.94595190	      0.13630314	     -6.25280932
      4.23000000	      2.01176554	      0.00000000	      0.00000000	      0.48593757	      0.90141422	     -0.21705132	    -14.21162290	      0.00000000	      0.00000000	    -11.54628389	     13.40467228	     25.78010394	      0.00000000	      0.00000000	    -12.69233731	      0.18786349	     -6.17110117
      4.24000000	      1.93714149	      0.00000000	      0.00000000	      0.49901566	      0.89928573	     -0.21719223	    -14.91380346	      0.00000000	      0.00000000	    -11.81927804	     13.44647771	     25.87031663	      0.00000000	      0.00000000	    -10.95617338	      0.22472792	     -6.06064775
      4.25000000	      1.86021229	      0.00000000	      0.00000000	      0.51220704	      0.89726355	     -0.21732673	    -15.54663305	      0.00000000	      0.00000000	    -12.21267335	     13.39962280	     26.02406945	      0.00000000	      0.00000000	     -9.80603260	      0.24387478	     -5.92777931
      4.26000000	      1.79106770	      0.00000000	      0.00000000	      0.52555482	      0.89542559	     -0.21740234	    -16.12529053	      0.00000000	      0.00000000	    -12.71799941	     13.26352129	     26.23168745	      0.00000000	      0.00000000	     -9.27534366	      0.22811625	     -5.77101727
      4.27000000	      1.72983982	      0.00000000	      0.00000000	      0.53914923	      0.89382553	     -0.21730339	    -16.65734592	      0.00000000	      0.00000000	    -13.32464167	     13.03821783	     26.47434106	      0.00000000	      0.00000000	     -9.34970421	      0.14305911	     -5.58085549
      4.28000000	      1.66477820	      0.00000000	      0.00000000	      0.55310211	      0.89242304	     -0.21696227	    -17.13885538	      0.00000000	      0.00000000	    -14.02444193	     12.72013461	     26.72799236	      0.00000000	      0.00000000	     -9.96227641	     -0.05986902	     -5.34227754
      4.29000000	      1.57512424	      0.00000000	      0.00000000	      0.56747554	      0.89106365	     -0.21644838	    -17.55440604	      0.00000000	      0.00000000	    -14.81654138	     12.29692418	     26.97264163	      0.00000000	      0.00000000	    -11.00139773	     -0.43378746	     -5.03934439
      4.30000000	      1.43966838	      0.00000000	      0.00000000	      0.58222465	      0.88957907	     -0.21586608	    -17.88035321	      0.00000000	      0.00000000	    -15.71037490	     11.74277797	     27.20449413	      0.00000000	      0.00000000	    -12.33084458	     -1.02173412	     -4.66043538
      4.31000000	      1.24816895	      0.00000000	      0.00000000	      0.59723488	      0.88791589	     -0.21525582	    -18.08919265	      0.00000000	      0.00000000	    -16.72543501	     11.01582235	     27.44356825	      0.00000000	      0.00000000	    -13.81885397	     -1.84062499	     -4.20248256
      4.32000000	      1.00671028	      0.00000000	      0.00000000	      0.61239919	      0.88618360	     -0.21465662	    -18.15320403	      0.00000000	      0.00000000	    -17.88786587	     10.05911354	     27.72669009	      0.00000000	      0.00000000	    -15.36812470	     -2.86856345	     -3.67296522
      4.33000000	      0.73052780	      0.00000000	      0.00000000	      0.62761990	      0.88461291	     -0.21416873	    -18.04696098	      0.00000000	      0.00000000	    -19.22542691	      8.80621246	     28.08413970	      0.00000000	      0.00000000	    -16.93516585	     -4.04009491	     -3.08933152
      4.34000000	      0.43230520	      0.00000000	      0.00000000	      0.64276571	      0.88344367	     -0.21388949	    -17.75016690	      0.00000000	      0.00000000	    -20.76297157	      7.19138869	     28.51588502	      0.00000000	      0.00000000	    -18.52634310	     -5.25200319	     -2.47640114
      4.35000000	      0.12080244	      0.00000000	      0.00000000	      0.65771478	      0.88280461	     -0.21381641	    -17.25186896	      0.00000000	      0.00000000	    -22.51961151	      5.16329926	     28.98844798	      0.00000000	      0.00000000	    -20.16805421	     -6.37859474	     -1.86275679
      4.36000000	     -0.19034022	      0.00000000	      0.00000000	      0.67246121	      0.88265732	     -0.21384830	    -16.55364434	      0.00000000	      0.00000000	    -24.50698394	      2.69982794	     29.45219227	      0.00000000	      0.00000000	    -21.86845929	     -7.29215669	     -1.27706396
